# xmcd CD database file
#
# Track frame offsets:
#	150
#	21058
#	45883
#	64086
#	82255
#	98504
#	116559
#	129659
#	141969
#	161757
#	185402
#	202960
#	239359
#	250468
#	264113
#	281139
#	300044
#	316366
#
# Disc length: 4477 seconds
#
# Revision: 2
# Processed by: cddbd v1.4b41PL1 Copyright (c) Steve Scherf et al.
# Submitted via: Feurio! 1.50.2ß - http://www.feurio.com
#
DISCID=f2117b12
DTITLE=Various Artist - Sampler part.1
DYEAR=1900
DGENRE=
TTITLE0=Rolling Stones - Mixed Emotions
TTITLE1=Whitney Houston - Track 02
TTITLE2=Anastacia - I´m outta love
TTITLE3=Springsteen, Bruce - Dancing In The Dark
TTITLE4=THE PROCLAMERS - I´M GONNA BE 500 MILES
TTITLE5=ZZ Top - Fearless Boogie
TTITLE6=Joan Jett and the blackhearts - I love rock'n'roll
TTITLE7=Joan Jett and the blackhearts - Shout
TTITLE8=The Rolling Stones - I Go Wild
TTITLE9=Muddy Waters - Mannish Boy
TTITLE10=ZZ-TOP - La Grange
TTITLE11=SISTER OF MERZCY - TEMPEL OF LOVE
TTITLE12=JOHN LEE HOOKER - BOOM BOOM
TTITLE13=H-BlockX vs. Dr. Ring-Ding - Ring Of Fire - Radio Version
TTITLE14=Eric Burdon and The Animals - Hey Gyp
TTITLE15=Billy Joel - A Matter Of Trust
TTITLE16=Talking Heads - And She Was
TTITLE17=Talking Heads - Once In A Lifetime
EXTD=
EXTT0=
EXTT1=
EXTT2=
EXTT3=
EXTT4=
EXTT5=
EXTT6=
EXTT7=
EXTT8=
EXTT9=
EXTT10=
EXTT11=
EXTT12=
EXTT13=
EXTT14=
EXTT15=
EXTT16=
EXTT17=
PLAYORDER=
